Coordinates
version=1
nRows=26
nColumns=24
inDegrees=yes

Units are S.I. units (second, meters, Newtons, ...)
Angles are in degrees.

endheader
time	pelvis_tilt	pelvis_list	pelvis_rotation	pelvis_tx	pelvis_ty	pelvis_tz	hip_flexion_r	hip_adduction_r	hip_rotation_r	knee_angle_r	ankle_angle_r	subtalar_angle_r	mtp_angle_r	hip_flexion_l	hip_adduction_l	hip_rotation_l	knee_angle_l	ankle_angle_l	subtalar_angle_l	mtp_angle_l	lumbar_extension	lumbar_bending	lumbar_rotation
      1.47566667	     -0.23050266	     -3.15742442	     -8.46526382	      0.94851190	      0.98696601	      0.31252724	    -20.77634449	      5.49330603	      7.15333532	     -7.59107097	     15.79474782	     -3.38775066	      3.09538331	     29.79571861	     -5.37844384	     -5.30442075	     -1.09234684	     11.54941677	     -7.78715434	     -3.10031465	     -0.27950546	      0.28254597	      9.31096046
      1.47983333	     -0.31369283	     -3.05949511	     -8.62186924	      0.95474620	      0.98610988	      0.31241187	    -20.95596641	      5.28690951	      7.18840521	     -7.73604169	     15.56960597	     -3.40585605	      3.16059626	     29.94292040	     -5.32775893	     -5.06932806	     -1.86022004	     11.84238331	     -7.95211743	     -2.97812549	     -0.05878688	      0.18397403	      9.53766783
      1.48400000	     -0.34958936	     -2.93960634	     -8.78072552	      0.96106488	      0.98534298	      0.31229057	    -21.17541400	      5.04485549	      7.19527292	     -7.90120677	     15.34758089	     -3.38013137	      3.19536880	     30.00244085	     -5.24464383	     -4.84906598	     -2.57265766	     12.11870288	     -8.13257318	     -2.91344025	      0.11419914	      0.05045265	      9.64761212
      1.48816667	     -0.41487121	     -2.82905609	     -8.93522734	      0.96742996	      0.98455624	      0.31213195	    -21.35326122	      4.81694749	      7.19355377	     -8.08559975	     15.09152639	     -3.36401115	      3.24538252	     30.08220530	     -5.16459033	     -4.62019970	     -3.27851432	     12.34573300	     -8.32587859	     -2.83756506	      0.33022758	     -0.06452383	      9.81651660
      1.49233333	     -0.52951661	     -2.71850695	     -9.08707194	      0.97384905	      0.98371916	      0.31195724	    -21.47303382	      4.59930538	      7.23035272	     -8.28294558	     14.81227436	     -3.38510484	      3.39244358	     30.19497855	     -5.08195361	     -4.36114978	     -3.94767962	     12.44697953	     -8.59490363	     -2.66710548	      0.59959247	     -0.15485649	     10.14533924
      1.49650000	     -0.61716922	     -2.60778122	     -9.28464127	      0.98029607	      0.98297739	      0.31181977	    -21.58687248	      4.35863901	      7.27273733	     -8.54669277	     14.52015718	     -3.40476015	      3.75982470	     30.23889974	     -5.01020293	     -4.14489586	     -4.55704486	     12.47071047	     -8.97780508	     -2.28276422	      0.85436499	     -0.24117486	     10.42984946
      1.50066667	     -0.63810105	     -2.46919715	     -9.42945202	      0.98684182	      0.98233418	      0.31160208	    -21.78297395	      4.08815499	      7.21407156	     -8.76910119	     14.14053667	     -3.34994196	      6.08555146	     30.19513874	     -4.87607199	     -3.98184634	     -5.11493513	     12.41882756	     -9.23393987	     -0.10435655	      1.01928056	     -0.39053264	     10.51448584
      1.50483333	     -0.70387368	     -2.32989342	     -9.59504644	      0.99343636	      0.98166125	      0.31139174	    -21.90104710	      3.81960468	      7.18038110	     -9.06318222	     13.82505794	     -3.31195982	      6.09825741	     30.19927290	     -4.75678164	     -3.90410786	     -5.68869423	     12.45034346	     -9.37004215	     -0.08810057	      1.26701463	     -0.52761155	     10.60501133
      1.50900000	     -0.81081457	     -2.19422564	     -9.77362979	      1.00006532	      0.98097141	      0.31117680	    -21.95373936	      3.55712522	      7.16564919	     -9.39797635	     13.50822934	     -3.26665687	      6.19477740	     30.22374494	     -4.64505109	     -3.80049305	     -6.21420579	     12.31036518	     -9.63961245	     -0.01112152	      1.56149697	     -0.63590797	     10.90833260
      1.51316667	     -0.87554224	     -2.04598537	     -9.92637176	      1.00671353	      0.98036663	      0.31090919	    -22.03782785	      3.28037030	      7.10318137	     -9.74811129	     13.15808980	     -3.19073456	      6.37318821	     30.18600753	     -4.49906019	     -3.70751443	     -6.68248786	     12.07630526	     -9.89668909	      0.12235570	      1.80770986	     -0.78676147	     11.11249290
      1.51733333	     -0.93070435	     -1.88878377	    -10.09444049	      1.01346224	      0.97982415	      0.31066402	    -22.12125703	      2.98525983	      7.03267236	    -10.11161306	     12.73622108	     -3.12244395	      6.43266381	     30.12859375	     -4.35618645	     -3.74878634	     -7.13579123	     11.83972275	    -10.02986280	      0.16867726	      2.05815985	     -0.92059791	     11.16892662
      1.52150000	     -0.98353618	     -1.74788749	    -10.23918564	      1.02017035	      0.97931254	      0.31032756	    -22.17590419	      2.70939143	      6.91493548	    -10.53340596	     12.33657991	     -2.96043459	      7.08931212	     30.03588664	     -4.19510483	     -3.59038739	     -7.49186165	     11.33548817	    -10.54245318	      0.64966656	      2.28434724	     -1.03335384	     11.44881502
      1.52566667	     -1.04855486	     -1.56277684	    -10.38892080	      1.02698158	      0.97882070	      0.31002423	    -22.20460486	      2.39466288	      6.81838174	    -10.96978560	     11.91322738	     -2.93748176	      7.15942189	     29.98259818	     -4.01867866	     -3.73253741	     -7.90385882	     10.96001205	    -10.57767889	      0.69931388	      2.56455563	     -1.21438141	     11.47590702
      1.52983333	     -1.13944301	     -1.39843573	    -10.52770337	      1.03376241	      0.97832050	      0.30965894	    -22.17243490	      2.10467468	      6.68588218	    -11.46139240	     11.42360082	     -2.86122602	     10.30258392	     29.94252549	     -3.84708808	     -3.73062377	     -8.25612994	     10.32095820	    -10.92656856	      2.87281123	      2.85471828	     -1.35252384	     11.60868031
      1.53400000	     -1.16960788	     -1.19625941	    -10.66026229	      1.04062328	      0.97794801	      0.30930161	    -22.18829333	      1.76647729	      6.50696495	    -11.97613286	     10.94766249	     -2.75492671	     10.35442251	     29.83531704	     -3.63525833	     -3.86269305	     -8.60060364	      9.78907295	    -11.04217785	      2.89084006	      3.08873719	     -1.57384073	     11.78889113
      1.53816667	     -1.22513507	     -0.99873884	    -10.77629966	      1.04748342	      0.97758720	      0.30888759	    -22.15223156	      1.44281356	      6.31573522	    -12.53167974	     10.45027515	     -2.63500440	     10.45340658	     29.76025189	     -3.42017067	     -3.96264335	     -8.94130810	      9.14592689	    -11.20730672	      2.93797501	      3.35533223	     -1.76370214	     11.90344604
      1.54233333	     -1.24981416	     -0.80932010	    -10.87290319	      1.05432584	      0.97730925	      0.30840117	    -22.12166663	      1.12079142	      6.05636266	    -13.12975976	      9.93768906	     -2.42626705	     10.74413933	     29.65291743	     -3.19023892	     -4.00680495	     -9.26683447	      8.37688938	    -11.56140977	      3.08999268	      3.58238196	     -1.92175255	     12.06398381
      1.54650000	     -1.29415594	     -0.58162860	    -10.95511918	      1.06121753	      0.97703729	      0.30789938	    -22.03995765	      0.77069369	      5.76850411	    -13.77490307	      9.42036963	     -2.27269345	     11.24178165	     29.58064797	     -2.92594533	     -4.11136696	     -9.60795111	      7.62929588	    -11.79482530	      3.33580301	      3.84817594	     -2.15078570	     12.13852107
      1.55066667	     -1.30166451	     -0.38735731	    -11.00503610	      1.06807947	      0.97686818	      0.30735386	    -22.00185370	      0.46450624	      5.50993701	    -14.39930733	      8.73358219	     -2.23168051	     11.30779895	     29.50868345	     -2.69043947	     -4.30798666	    -10.02931374	      6.99978500	    -11.71609005	      3.36259073	      4.05374991	     -2.33069506	     12.12190993
      1.55483333	     -1.30572326	     -0.13580786	    -11.06310015	      1.07497743	      0.97674539	      0.30678158	    -21.91383852	      0.08466813	      5.16428557	    -15.09807674	      8.02602816	     -2.09998049	     15.05268310	     29.40809513	     -2.38479751	     -4.40281297	    -10.38070175	      6.19399405	    -11.98910423	      5.10642809	      4.26297277	     -2.59802051	     12.14904523
      1.55900000	     -1.30130605	      0.11894834	    -11.06796948	      1.08187312	      0.97666138	      0.30612510	    -21.81172977	     -0.28264353	      4.73603489	    -15.84874004	      7.41049343	     -1.92881772	     15.13514908	     29.34362874	     -2.06091421	     -4.53954118	    -10.81832639	      5.50497418	    -12.03470579	      5.11319107	      4.46350744	     -2.87396477	     12.20454713
      1.56316667	     -1.27850900	      0.35370984	    -11.04905231	      1.08876851	      0.97665530	      0.30542807	    -21.72751161	     -0.62025054	      4.33745535	    -16.58983959	      6.63427107	     -1.86972685	     15.16360414	     29.29064820	     -1.75074658	     -4.69586504	    -11.33401701	      4.92581516	    -11.97005671	      5.11214548	      4.64583117	     -3.11866568	     12.18580484
      1.56733333	     -1.24357802	      0.61949389	    -11.01955856	      1.09567862	      0.97670277	      0.30470270	    -21.61951119	     -0.99420191	      3.88075653	    -17.38731034	      5.86105991	     -1.77128566	     15.21477776	     29.23813168	     -1.40312037	     -4.84258566	    -11.87340293	      4.36672209	    -11.95490462	      5.11681704	      4.82083140	     -3.41567491	     12.16612132
      1.57150000	     -1.17400770	      0.92441757	    -10.96954965	      1.10256022	      0.97683551	      0.30387998	    -21.48875200	     -1.43172667	      3.27439767	    -18.28581910	      5.19268645	     -1.37961874	     15.63638938	     29.13777306	     -0.98220179	     -4.86415744	    -12.36877249	      3.73598351	    -12.16077957	      5.19173438	      4.92330566	     -3.77147728	     12.12730890
      1.57566667	     -1.11482378	      1.21709241	    -10.89013183	      1.10944095	      0.97698259	      0.30303654	    -21.35346365	     -1.83238386	      2.72319154	    -19.14748608	      4.24229948	     -1.36878357	     19.29612402	     29.09486263	     -0.57922161	     -4.95002807	    -12.97695439	      3.28089342	    -12.19430414	      5.82152382	      5.06449812	     -4.10882565	     12.04709181
      1.57983333	     -1.02065718	      1.49656233	    -10.78339567	      1.11633074	      0.97722745	      0.30215380	    -21.24414780	     -2.21851406	      2.14245257	    -20.03495612	      3.31656376	     -1.31679808	     19.29560815	     29.03826369	     -0.18208215	     -5.07944230	    -13.65287691	      2.92761491	    -12.07803183	      5.81347793	      5.16210947	     -4.43292982	     12.01991367
